<svg xmlns="http://www.w3.org/2000/svg" xmlns:xlink="http://www.w3.org/1999/xlink" width="64" zoomAndPan="magnify" viewBox="0 0 48 48" height="64" preserveAspectRatio="xMidYMid meet" version="1.0"><defs><clipPath id="521000dd4d"><path d="M 5.191406 13 L 37 13 L 37 35.511719 L 5.191406 35.511719 Z M 5.191406 13 " clip-rule="nonzero"/></clipPath><clipPath id="25338e4108"><path d="M 26 11.269531 L 42.660156 11.269531 L 42.660156 28 L 26 28 Z M 26 11.269531 " clip-rule="nonzero"/></clipPath></defs><path fill="#ffffff" d="M 17.835938 22.710938 C 14.125 21.179688 10.863281 21.042969 7.871094 22.28125 L 7.683594 21.828125 C 10.804688 20.542969 14.191406 20.6875 18.027344 22.261719 Z M 17.835938 22.710938 " fill-opacity="1" fill-rule="nonzero"/><path fill="#ffffff" d="M 18.027344 25.214844 C 14.195312 23.640625 10.804688 23.496094 7.683594 24.78125 L 7.871094 25.230469 C 10.871094 23.996094 14.128906 24.136719 17.835938 25.664062 Z M 18.027344 25.214844 " fill-opacity="1" fill-rule="nonzero"/><path fill="#ffffff" d="M 18.027344 19.308594 C 14.195312 17.734375 10.804688 17.59375 7.683594 18.875 L 7.871094 19.324219 C 10.871094 18.089844 14.128906 18.230469 17.835938 19.757812 Z M 18.027344 19.308594 " fill-opacity="1" fill-rule="nonzero"/><g clip-path="url(#521000dd4d)"><path fill="#ffffff" d="M 34.542969 25.132812 L 34.542969 33.300781 C 27.652344 28.960938 21.695312 32.933594 21.695312 33.613281 L 21.695312 19.152344 C 21.695312 16.585938 25.109375 15.199219 29.320312 15.199219 C 30.480469 15.199219 31.570312 15.375 32.550781 15.65625 L 33.96875 14.246094 C 26.917969 12.101562 21.503906 15.269531 20.761719 15.953125 C 19.699219 14.929688 13.574219 11.378906 5.191406 15 C 5.191406 15.054688 5.191406 16.054688 5.191406 17.582031 L 5.191406 34.851562 L 17.929688 34.851562 C 18.367188 35.222656 19.402344 35.488281 20.609375 35.488281 C 21.820312 35.488281 22.855469 35.222656 23.296875 34.851562 L 36.03125 34.851562 L 36.03125 23.652344 Z M 19.625 33.613281 C 19.625 32.933594 13.660156 28.960938 6.78125 33.296875 L 6.78125 16.464844 C 8.140625 15.679688 9.976562 15.199219 12 15.199219 C 16.207031 15.199219 19.625 16.585938 19.625 19.152344 Z M 19.625 33.613281 " fill-opacity="1" fill-rule="nonzero"/></g><path fill="#ffffff" d="M 22.660156 22.261719 L 22.847656 22.710938 C 24.308594 22.105469 25.816406 21.78125 27.296875 21.605469 L 27.511719 21.09375 C 25.898438 21.257812 24.253906 21.605469 22.660156 22.261719 Z M 22.660156 22.261719 " fill-opacity="1" fill-rule="nonzero"/><path fill="#ffffff" d="M 22.660156 25.214844 L 22.847656 25.664062 C 23.890625 25.234375 24.957031 24.941406 26.023438 24.730469 L 26.234375 24.210938 C 25.039062 24.425781 23.832031 24.730469 22.660156 25.214844 Z M 22.660156 25.214844 " fill-opacity="1" fill-rule="nonzero"/><path fill="#ffffff" d="M 22.660156 19.308594 L 22.847656 19.757812 C 25.089844 18.835938 27.433594 18.46875 29.628906 18.5625 L 30.09375 18.101562 C 27.699219 17.933594 25.121094 18.296875 22.660156 19.308594 Z M 22.660156 19.308594 " fill-opacity="1" fill-rule="nonzero"/><g clip-path="url(#25338e4108)"><path fill="#ffffff" d="M 42.292969 14.492188 L 39.484375 11.699219 C 39.101562 11.3125 38.328125 11.449219 37.773438 12.003906 L 28.738281 20.992188 L 27.785156 23.304688 C 27.570312 23.828125 27.269531 24.578125 27.007812 25.214844 C 26.933594 25.390625 26.851562 25.59375 26.789062 25.738281 L 26.34375 26.832031 C 26.066406 27.503906 26.398438 27.828125 27.070312 27.558594 L 28.171875 27.109375 C 28.3125 27.050781 28.523438 26.96875 28.695312 26.894531 C 29.339844 26.640625 30.085938 26.332031 30.621094 26.125 L 32.945312 25.179688 L 41.988281 16.191406 C 42.542969 15.640625 42.679688 14.875 42.292969 14.492188 Z M 30.339844 25.421875 L 28.878906 26.015625 L 27.894531 25.035156 L 28.1875 24.320312 L 28.488281 23.589844 L 29.003906 22.324219 L 31.605469 24.910156 Z M 30.339844 25.421875 " fill-opacity="1" fill-rule="nonzero"/></g></svg>