<svg xmlns="http://www.w3.org/2000/svg" xmlns:xlink="http://www.w3.org/1999/xlink" width="64" zoomAndPan="magnify" viewBox="0 0 48 48" height="64" preserveAspectRatio="xMidYMid meet" version="1.0"><defs><clipPath id="41f99a5180"><path d="M 5.191406 8.328125 L 42.660156 8.328125 L 42.660156 42.121094 L 5.191406 42.121094 Z M 5.191406 8.328125 " clip-rule="nonzero"/></clipPath></defs><g clip-path="url(#41f99a5180)"><path fill="#ffffff" d="M 41.855469 40.535156 L 35.613281 40.535156 C 37.933594 36.753906 41.960938 31.058594 41.960938 28.234375 C 41.960938 24.21875 38.917969 20.972656 35.074219 20.554688 L 35.074219 12.933594 C 35.074219 12.496094 34.71875 12.140625 34.277344 12.140625 L 31.359375 12.140625 L 31.359375 9.121094 C 31.359375 8.683594 31.003906 8.328125 30.566406 8.328125 L 20.046875 8.328125 C 19.605469 8.328125 19.25 8.683594 19.25 9.121094 L 19.25 12.140625 L 16.328125 12.140625 C 15.890625 12.140625 15.53125 12.496094 15.53125 12.933594 L 15.53125 18.847656 L 11.757812 18.847656 C 11.320312 18.847656 10.964844 19.203125 10.964844 19.640625 L 10.964844 22.875 L 9.46875 22.875 C 9.027344 22.875 8.671875 23.230469 8.671875 23.667969 L 8.671875 40.535156 L 6.003906 40.535156 C 5.566406 40.535156 5.210938 40.890625 5.210938 41.328125 C 5.210938 41.765625 5.566406 42.121094 6.003906 42.121094 C 7.476562 42.121094 40.046875 42.121094 41.855469 42.121094 C 42.296875 42.121094 42.652344 41.765625 42.652344 41.328125 C 42.652344 40.890625 42.296875 40.535156 41.855469 40.535156 Z M 15.53125 40.535156 L 10.261719 40.535156 L 10.261719 24.460938 C 11.492188 24.460938 14.3125 24.460938 15.53125 24.460938 Z M 15.53125 22.875 L 12.554688 22.875 L 12.554688 20.4375 L 15.53125 20.4375 Z M 20.84375 9.914062 L 29.769531 9.914062 L 29.769531 12.140625 L 20.84375 12.140625 Z M 26.414062 40.535156 L 24.199219 40.535156 L 24.199219 35.8125 L 26.414062 35.8125 Z M 28.003906 40.535156 L 28.003906 35.015625 C 28.003906 34.578125 27.648438 34.222656 27.207031 34.222656 L 23.402344 34.222656 C 22.964844 34.222656 22.605469 34.578125 22.605469 35.015625 L 22.605469 40.535156 L 17.125 40.535156 C 17.125 36.738281 17.125 17.464844 17.125 13.726562 L 33.484375 13.726562 L 33.484375 20.542969 C 29.5625 20.917969 26.484375 24.222656 26.484375 28.234375 C 26.484375 30.277344 28.695312 33.949219 31.585938 38.539062 C 32.042969 39.269531 32.46875 39.941406 32.832031 40.535156 Z M 34.222656 31.859375 C 32.070312 31.859375 30.324219 30.117188 30.324219 27.96875 C 30.324219 25.824219 32.070312 24.082031 34.222656 24.082031 C 36.371094 24.082031 38.121094 25.824219 38.121094 27.96875 C 38.121094 30.117188 36.371094 31.859375 34.222656 31.859375 Z M 34.222656 31.859375 " fill-opacity="1" fill-rule="nonzero"/></g><path fill="#ffffff" d="M 34.222656 25.667969 C 32.949219 25.667969 31.914062 26.699219 31.914062 27.96875 C 31.914062 29.238281 32.949219 30.273438 34.222656 30.273438 C 35.492188 30.273438 36.527344 29.238281 36.527344 27.96875 C 36.527344 26.699219 35.492188 25.667969 34.222656 25.667969 Z M 34.222656 25.667969 " fill-opacity="1" fill-rule="nonzero"/><path fill="#ffffff" d="M 24.382812 17.566406 L 20.402344 17.566406 C 19.964844 17.566406 19.605469 17.921875 19.605469 18.359375 L 19.605469 21.695312 C 19.605469 22.132812 19.964844 22.488281 20.402344 22.488281 C 20.84375 22.488281 21.199219 22.132812 21.199219 21.695312 L 21.199219 19.15625 L 23.589844 19.15625 L 23.589844 21.695312 C 23.589844 22.132812 23.945312 22.488281 24.382812 22.488281 C 24.824219 22.488281 25.179688 22.132812 25.179688 21.695312 L 25.179688 18.359375 C 25.179688 17.921875 24.824219 17.566406 24.382812 17.566406 Z M 24.382812 17.566406 " fill-opacity="1" fill-rule="nonzero"/><path fill="#ffffff" d="M 24.382812 24.1875 L 20.402344 24.1875 C 19.964844 24.1875 19.605469 24.542969 19.605469 24.984375 L 19.605469 28.320312 C 19.605469 28.757812 19.964844 29.113281 20.402344 29.113281 C 20.84375 29.113281 21.199219 28.757812 21.199219 28.320312 L 21.199219 25.777344 L 23.589844 25.777344 L 23.589844 28.320312 C 23.589844 28.757812 23.945312 29.113281 24.382812 29.113281 C 24.824219 29.113281 25.179688 28.757812 25.179688 28.320312 L 25.179688 24.984375 C 25.179688 24.542969 24.824219 24.1875 24.382812 24.1875 Z M 24.382812 24.1875 " fill-opacity="1" fill-rule="nonzero"/></svg>