<svg xmlns="http://www.w3.org/2000/svg" xmlns:xlink="http://www.w3.org/1999/xlink" width="64" zoomAndPan="magnify" viewBox="0 0 48 48" height="64" preserveAspectRatio="xMidYMid meet" version="1.0"><defs><clipPath id="52e19c163d"><path d="M 15 4.703125 L 33 4.703125 L 33 27 L 15 27 Z M 15 4.703125 " clip-rule="nonzero"/></clipPath><clipPath id="7951cabb68"><path d="M 8.601562 29 L 13 29 L 13 35 L 8.601562 35 Z M 8.601562 29 " clip-rule="nonzero"/></clipPath><clipPath id="2ea59e0260"><path d="M 11 24 L 37 24 L 37 42.171875 L 11 42.171875 Z M 11 24 " clip-rule="nonzero"/></clipPath><clipPath id="a10db9f1c5"><path d="M 35 29 L 39.457031 29 L 39.457031 35 L 35 35 Z M 35 29 " clip-rule="nonzero"/></clipPath></defs><g clip-path="url(#52e19c163d)"><path fill="#ffffff" d="M 24.078125 26.796875 C 25.28125 25.921875 28.257812 24.082031 32.851562 23.261719 C 31.5 21.363281 29.683594 19.90625 27.589844 19.125 C 30.03125 17.847656 31.699219 15.304688 31.699219 12.371094 C 31.699219 8.160156 28.261719 4.742188 24.023438 4.742188 C 19.785156 4.742188 16.351562 8.160156 16.351562 12.371094 C 16.351562 15.304688 18.019531 17.847656 20.460938 19.125 C 18.367188 19.90625 16.550781 21.363281 15.195312 23.261719 C 19.792969 24.082031 22.769531 25.921875 23.96875 26.796875 L 24.078125 26.796875 " fill-opacity="1" fill-rule="nonzero"/></g><g clip-path="url(#7951cabb68)"><path fill="#ffffff" d="M 11.347656 34.34375 C 11.695312 34.285156 12 34.125 12.222656 33.875 C 12.257812 33.835938 12.277344 33.785156 12.308594 33.746094 C 12.375 33.652344 12.445312 33.5625 12.488281 33.453125 C 12.558594 33.289062 12.597656 33.109375 12.597656 32.917969 L 12.597656 30.628906 C 12.597656 30.4375 12.558594 30.257812 12.488281 30.09375 C 12.445312 29.984375 12.375 29.894531 12.308594 29.800781 C 12.277344 29.757812 12.257812 29.710938 12.222656 29.671875 C 12 29.417969 11.695312 29.257812 11.347656 29.203125 C 11.269531 29.1875 11.199219 29.15625 11.117188 29.15625 L 10.078125 29.15625 C 9.261719 29.15625 8.597656 29.816406 8.597656 30.628906 L 8.597656 32.917969 C 8.597656 33.730469 9.261719 34.390625 10.078125 34.390625 L 11.117188 34.390625 C 11.199219 34.390625 11.269531 34.355469 11.347656 34.34375 " fill-opacity="1" fill-rule="nonzero"/></g><g clip-path="url(#2ea59e0260)"><path fill="#ffffff" d="M 33.796875 32.917969 L 33.796875 30.628906 C 33.796875 28.988281 35.082031 27.652344 36.699219 27.535156 L 36.699219 24.511719 C 34.898438 24.566406 33.296875 24.816406 31.875 25.15625 C 31.847656 25.164062 31.816406 25.167969 31.785156 25.175781 C 31.199219 25.320312 30.648438 25.476562 30.128906 25.648438 C 30.089844 25.660156 30.054688 25.671875 30.019531 25.683594 C 28.964844 26.035156 28.058594 26.421875 27.304688 26.796875 C 25.539062 27.679688 24.59375 28.484375 24.574219 28.5 C 24.261719 28.777344 23.789062 28.777344 23.476562 28.5 C 23.453125 28.484375 22.511719 27.679688 20.742188 26.796875 C 19.988281 26.421875 19.082031 26.035156 18.03125 25.683594 C 17.992188 25.671875 17.957031 25.660156 17.921875 25.648438 C 17.402344 25.476562 16.851562 25.320312 16.265625 25.175781 C 16.234375 25.167969 16.203125 25.164062 16.171875 25.15625 C 14.753906 24.816406 13.148438 24.566406 11.347656 24.511719 L 11.347656 27.535156 C 12.96875 27.652344 14.253906 28.988281 14.253906 30.628906 L 14.253906 32.917969 C 14.253906 34.558594 12.96875 35.890625 11.347656 36.011719 L 11.347656 38.148438 C 18.234375 38.351562 22.558594 41.042969 24.023438 42.121094 C 25.488281 41.042969 29.816406 38.351562 36.699219 38.148438 L 36.699219 36.011719 C 35.082031 35.890625 33.796875 34.558594 33.796875 32.917969 " fill-opacity="1" fill-rule="nonzero"/></g><g clip-path="url(#a10db9f1c5)"><path fill="#ffffff" d="M 37.972656 29.15625 L 36.933594 29.15625 C 36.851562 29.15625 36.777344 29.1875 36.699219 29.203125 C 36.351562 29.257812 36.050781 29.417969 35.828125 29.671875 C 35.792969 29.710938 35.773438 29.757812 35.742188 29.800781 C 35.675781 29.894531 35.601562 29.984375 35.558594 30.09375 C 35.492188 30.257812 35.453125 30.4375 35.453125 30.628906 L 35.453125 32.917969 C 35.453125 33.109375 35.492188 33.289062 35.558594 33.453125 C 35.601562 33.5625 35.675781 33.652344 35.742188 33.746094 C 35.773438 33.789062 35.792969 33.835938 35.828125 33.875 C 36.050781 34.125 36.351562 34.285156 36.699219 34.34375 C 36.777344 34.355469 36.851562 34.390625 36.933594 34.390625 L 37.972656 34.390625 C 38.789062 34.390625 39.453125 33.730469 39.453125 32.917969 L 39.453125 30.628906 C 39.453125 29.816406 38.789062 29.15625 37.972656 29.15625 " fill-opacity="1" fill-rule="nonzero"/></g></svg>