<svg xmlns="http://www.w3.org/2000/svg" xmlns:xlink="http://www.w3.org/1999/xlink" width="64" zoomAndPan="magnify" viewBox="0 0 48 48" height="64" preserveAspectRatio="xMidYMid meet" version="1.0"><defs><clipPath id="14d0d1b37f"><path d="M 5.191406 29.75 L 42.660156 29.75 L 42.660156 35.925781 L 5.191406 35.925781 Z M 5.191406 29.75 " clip-rule="nonzero"/></clipPath><clipPath id="f6cae7846c"><path d="M 10 10.957031 L 38 10.957031 L 38 29 L 10 29 Z M 10 10.957031 " clip-rule="nonzero"/></clipPath></defs><g clip-path="url(#14d0d1b37f)"><path fill="#ffffff" d="M 29.332031 34.351562 L 18.519531 34.351562 C 18.445312 34.351562 18.398438 34.273438 18.433594 34.207031 L 19.265625 32.609375 C 19.28125 32.574219 19.316406 32.554688 19.351562 32.554688 L 28.5 32.554688 C 28.535156 32.554688 28.570312 32.574219 28.589844 32.609375 L 29.421875 34.207031 C 29.453125 34.273438 29.40625 34.351562 29.332031 34.351562 Z M 42.421875 34.535156 L 37.945312 30.0625 C 37.792969 29.910156 37.585938 29.824219 37.367188 29.824219 L 10.484375 29.824219 C 10.269531 29.824219 10.0625 29.910156 9.90625 30.0625 L 5.429688 34.535156 C 5.277344 34.6875 5.191406 34.894531 5.191406 35.109375 C 5.191406 35.558594 5.558594 35.925781 6.007812 35.925781 L 41.847656 35.925781 C 42.296875 35.925781 42.660156 35.558594 42.660156 35.109375 C 42.660156 34.894531 42.574219 34.6875 42.421875 34.535156 " fill-opacity="1" fill-rule="nonzero"/></g><g clip-path="url(#f6cae7846c)"><path fill="#ffffff" d="M 36.367188 10.964844 L 11.488281 10.964844 C 10.765625 10.964844 10.179688 11.554688 10.179688 12.273438 L 10.179688 27.023438 C 10.179688 27.742188 10.765625 28.332031 11.488281 28.332031 L 36.367188 28.332031 C 37.085938 28.332031 37.675781 27.742188 37.675781 27.023438 L 37.675781 12.273438 C 37.675781 11.554688 37.085938 10.964844 36.367188 10.964844 Z M 36.160156 12.480469 L 36.160156 26.820312 L 11.691406 26.820312 L 11.691406 12.480469 L 36.160156 12.480469 " fill-opacity="1" fill-rule="nonzero"/></g></svg>